<svg width="590" height="315" viewBox="0 0 590 315" fill="none" xmlns="http://www.w3.org/2000/svg">
<path d="M70.1854 168C66.5268 168 63.3254 166.628 60.5814 163.884C57.8374 161.14 56.4654 157.743 56.4654 153.692V45.108C56.4654 41.0573 57.8374 37.66 60.5814 34.916C63.3254 32.172 66.5268 30.8 70.1854 30.8H114.677C118.859 30.8 122.256 32.172 124.869 34.916C127.613 37.66 128.985 41.0573 128.985 45.108V153.692C128.985 157.743 127.613 161.14 124.869 163.884C122.256 166.628 118.859 168 114.677 168H70.1854ZM81.3574 149.968H103.505C105.727 149.968 107.491 149.249 108.797 147.812C110.235 146.375 110.953 144.611 110.953 142.52V56.28C110.953 54.0587 110.235 52.2947 108.797 50.988C107.491 49.5507 105.727 48.832 103.505 48.832H81.3574C79.5281 48.832 77.8948 49.5507 76.4574 50.988C75.1508 52.2947 74.4974 54.0587 74.4974 56.28V142.52C74.4974 144.611 75.1508 146.375 76.4574 147.812C77.8948 149.249 79.5281 149.968 81.3574 149.968ZM149.005 168V25.508L167.429 21.392V168H149.005ZM181.161 43.736V25.312L199.585 21V39.424L181.161 43.736ZM181.553 168V74.312L199.977 70V168H181.553ZM228.158 168L209.734 70H228.158L237.37 119L246.582 70H265.006L246.582 168H228.158ZM285.239 168C281.319 168 277.921 166.628 275.047 163.884C272.303 161.009 270.931 157.612 270.931 153.692V84.112C270.931 80.192 272.303 76.86 275.047 74.116C277.921 71.372 281.319 70 285.239 70H311.895C315.945 70 319.343 71.372 322.087 74.116C324.831 76.86 326.203 80.192 326.203 84.112V113.904C326.203 117.824 324.831 121.221 322.087 124.096C319.343 126.84 315.945 128.212 311.895 128.212H289.355V142.52C289.355 144.48 290.008 146.179 291.315 147.616C292.752 148.923 294.516 149.576 296.607 149.576H322.087L326.203 168H285.239ZM289.355 109.788H300.723C302.683 109.788 304.316 109.135 305.623 107.828C307.06 106.391 307.779 104.692 307.779 102.732V95.48C307.779 93.52 307.06 91.8867 305.623 90.58C304.316 89.1427 302.683 88.424 300.723 88.424H296.607C294.516 88.424 292.752 89.1427 291.315 90.58C290.008 91.8867 289.355 93.52 289.355 95.48V109.788ZM336.009 168V70H376.973C380.893 70 384.225 71.4373 386.969 74.312C389.844 77.056 391.281 80.388 391.281 84.308V105.672L372.857 101.556V95.676C372.857 93.716 372.138 92.0173 370.701 90.58C369.394 89.1427 367.761 88.424 365.801 88.424H354.433V168H336.009Z" fill="#FFC971"/>
<path d="M181.461 284V143.65H200.108V265.353H248.027V284H181.461ZM278.426 284C274.283 284 270.807 282.596 268 279.789C265.193 276.982 263.79 273.507 263.79 269.363V183.75H282.637V257.935C282.637 259.806 283.372 261.477 284.842 262.947C286.313 264.418 287.984 265.153 289.855 265.153H301.484V183.75H320.331V284H278.426ZM333.169 284V183.75H375.074C378.95 183.75 382.359 185.153 385.299 187.96C388.24 190.767 389.71 194.176 389.71 198.186V284H370.863V209.815C370.863 207.676 370.128 205.939 368.658 204.602C367.187 203.265 365.517 202.597 363.645 202.597H352.016V284H333.169ZM415.095 284C410.952 284 407.476 282.596 404.669 279.789C401.862 276.982 400.459 273.507 400.459 269.363V198.386C400.459 194.243 401.862 190.767 404.669 187.96C407.476 185.153 410.952 183.75 415.095 183.75H438.153V138.036L457 133.625V284H415.095ZM426.524 265.153H438.153V202.597H426.524C424.653 202.597 422.982 203.265 421.511 204.602C420.041 205.939 419.306 207.676 419.306 209.815V257.935C419.306 259.806 420.041 261.477 421.511 262.947C422.982 264.418 424.653 265.153 426.524 265.153ZM469.185 156.883V138.036L488.032 133.625V152.472L469.185 156.883ZM469.586 284V188.161L488.433 183.75V284H469.586ZM501.166 284V183.75H543.071C546.947 183.75 550.356 185.153 553.296 187.96C556.237 190.767 557.707 194.176 557.707 198.186V284H538.86V209.815C538.86 207.676 538.125 205.939 536.655 204.602C535.184 203.265 533.514 202.597 531.642 202.597H520.013V284H501.166Z" fill="#FFC971"/>
</svg>
