<svg width="128" height="133" viewBox="0 0 128 133" fill="none" xmlns="http://www.w3.org/2000/svg">
<path d="M68.0664 61.7188C68.0664 55.2083 67.7734 50.7487 67.1875 48.3398C66.6016 45.8659 65.5273 44.6289 63.9648 44.6289C62.9883 44.6289 62.1094 44.9544 61.3281 45.6055C61.4583 46.7773 61.6536 48.3398 61.9141 50.293C62.1745 52.2461 62.3047 56.4128 62.3047 62.793V69.1406C62.3047 73.5677 62.207 76.7904 62.0117 78.8086C61.8164 80.8268 61.6536 82.5521 61.5234 83.9844C61.4583 84.7656 61.3932 85.5469 61.3281 86.3281C62.1094 86.9792 62.9883 87.3047 63.9648 87.3047C65.5273 87.3047 66.6016 86.1003 67.1875 83.6914C67.7734 81.2174 68.0664 76.7253 68.0664 70.2148V61.7188ZM64.1602 132.227C52.5716 132.227 41.9271 129.85 32.2266 125.098C22.5911 120.28 14.8112 112.956 8.88672 103.125C2.96224 93.2292 0 80.8919 0 66.1133C0 44.694 6.44531 27.9622 19.3359 15.918C30.7943 5.30599 45.5404 0 63.5742 0C83.1706 0 98.6654 6.08724 110.059 18.2617C121.517 30.3711 127.246 46.3216 127.246 66.1133C127.246 88.1185 121.126 104.915 108.887 116.504C97.7539 126.986 82.8451 132.227 64.1602 132.227Z" fill="#071E58"/>
</svg>
